<?xml version="1.0" encoding="utf-8"?>
<svg width="800px" height="800px" viewBox="-3 0 28 28" version="1.1" xmlns="http://www.w3.org/2000/svg" style="">
  <title>play</title>
  <desc>Created with Sketch Beta.</desc>
  <path fill-rule="evenodd" clip-rule="evenodd" d="M 17.804 8.126 L 17.804 19.992 C 17.804 21.397 16.665 22.535 15.261 22.535 L 14.414 22.535 C 13.009 22.535 11.871 21.397 11.871 19.992 L 11.871 8.126 C 11.871 6.722 13.009 5.584 14.414 5.584 L 15.261 5.584 C 16.665 5.584 17.804 6.723 17.804 8.126 Z" style="stroke-width: 1.167px;"/>
  <path fill-rule="evenodd" clip-rule="evenodd" d="M 7.633 5.584 C 9.038 5.584 10.175 6.723 10.175 8.126 L 10.175 19.992 C 10.175 21.397 9.038 22.535 7.633 22.535 L 6.785 22.535 C 5.381 22.535 4.243 21.397 4.243 19.992 L 4.243 8.126 C 4.243 6.722 5.381 5.584 6.785 5.584 L 7.633 5.584 Z" style="stroke-width: 1.167px;"/>
</svg>